
      <svg xmlns="http://www.w3.org/2000/svg" width="200" height="200">
        <defs>
          <linearGradient id="gradient" x1="0%" y1="0%" x2="0%" y2="100%">
            <stop offset="0%" stop-color="#83769c" />
            <stop offset="100%" stop-color="#ff77a8" />
          </linearGradient>
        </defs>
        <polyline
          stroke="url(#gradient)"
          stroke-width="2"
          stroke-linecap="round"
          stroke-linejoin="round"
          fill="none"
          points="6.25 6.25 18.75 18.75 6.25 18.75 18.75 6.25 6.25 31.25 18.75 43.75 18.75 31.25 6.25 43.75 31.25 31.25 43.75 43.75 43.75 31.25 31.25 43.75 43.75 18.75 31.25 6.25 43.75 6.25 31.25 18.75 56.25 6.25 68.75 18.75 68.75 6.25 56.25 18.75 81.25 6.25 93.75 18.75 81.25 18.75 93.75 6.25 81.25 31.25 93.75 43.75 81.25 43.75 93.75 31.25 68.75 43.75 56.25 31.25 56.25 43.75 68.75 31.25 56.25 56.25 68.75 68.75 68.75 56.25 56.25 68.75 81.25 56.25 93.75 68.75 81.25 68.75 93.75 56.25 81.25 81.25 93.75 93.75 81.25 93.75 93.75 81.25 68.75 93.75 56.25 81.25 56.25 93.75 68.75 81.25 43.75 93.75 31.25 81.25 43.75 81.25 31.25 93.75 43.75 68.75 31.25 56.25 31.25 68.75 43.75 56.25 18.75 68.75 6.25 56.25 6.25 68.75 18.75 56.25 6.25 81.25 18.75 93.75 6.25 93.75 18.75 81.25 6.25 106.25 18.75 118.75 18.75 106.25 6.25 118.75 31.25 106.25 43.75 118.75 31.25 118.75 43.75 106.25 31.25 131.25 43.75 143.75 31.25 143.75 43.75 131.25 18.75 143.75 6.25 131.25 6.25 143.75 18.75 131.25 6.25 156.25 18.75 168.75 6.25 168.75 18.75 156.25 6.25 181.25 18.75 193.75 18.75 181.25 6.25 193.75 31.25 181.25 43.75 193.75 43.75 181.25 31.25 193.75 43.75 168.75 31.25 156.25 43.75 156.25 31.25 168.75 56.25 156.25 68.75 168.75 56.25 168.75 68.75 156.25 56.25 181.25 68.75 193.75 68.75 181.25 56.25 193.75 81.25 181.25 93.75 193.75 93.75 181.25 81.25 193.75 93.75 168.75 81.25 156.25 93.75 156.25 81.25 168.75 93.75 143.75 81.25 131.25 81.25 143.75 93.75 131.25 68.75 143.75 56.25 131.25 68.75 131.25 56.25 143.75 68.75 118.75 56.25 106.25 68.75 106.25 56.25 118.75 81.25 106.25 93.75 118.75 93.75 106.25 81.25 118.75 106.25 106.25 118.75 118.75 118.75 106.25 106.25 118.75 131.25 106.25 143.75 118.75 131.25 118.75 143.75 106.25 131.25 131.25 143.75 143.75 131.25 143.75 143.75 131.25 118.75 143.75 106.25 131.25 106.25 143.75 118.75 131.25 106.25 156.25 118.75 168.75 106.25 168.75 118.75 156.25 106.25 181.25 118.75 193.75 118.75 181.25 106.25 193.75 131.25 181.25 143.75 193.75 143.75 181.25 131.25 193.75 143.75 168.75 131.25 156.25 143.75 156.25 131.25 168.75 156.25 156.25 168.75 168.75 156.25 168.75 168.75 156.25 156.25 181.25 168.75 193.75 168.75 181.25 156.25 193.75 181.25 181.25 193.75 193.75 193.75 181.25 181.25 193.75 193.75 168.75 181.25 156.25 193.75 156.25 181.25 168.75 193.75 143.75 181.25 131.25 181.25 143.75 193.75 131.25 168.75 143.75 156.25 131.25 168.75 131.25 156.25 143.75 168.75 118.75 156.25 106.25 168.75 106.25 156.25 118.75 181.25 106.25 193.75 118.75 193.75 106.25 181.25 118.75 193.75 93.75 181.25 81.25 193.75 81.25 181.25 93.75 193.75 68.75 181.25 56.25 181.25 68.75 193.75 56.25 168.75 68.75 156.25 56.25 156.25 68.75 168.75 56.25 156.25 81.25 168.75 93.75 156.25 93.75 168.75 81.25 143.75 93.75 131.25 81.25 131.25 93.75 143.75 81.25 118.75 93.75 106.25 81.25 118.75 81.25 106.25 93.75 118.75 68.75 106.25 56.25 118.75 56.25 106.25 68.75 131.25 56.25 143.75 68.75 143.75 56.25 131.25 68.75 143.75 43.75 131.25 31.25 131.25 43.75 143.75 31.25 118.75 43.75 106.25 31.25 118.75 31.25 106.25 43.75 118.75 18.75 106.25 6.25 118.75 6.25 106.25 18.75 131.25 6.25 143.75 18.75 143.75 6.25 131.25 18.75 156.25 6.25 168.75 18.75 156.25 18.75 168.75 6.25 156.25 31.25 168.75 43.75 168.75 31.25 156.25 43.75 181.25 31.25 193.75 43.75 193.75 31.25 181.25 43.75 193.75 18.75 181.25 6.25 193.75 6.25 181.25 18.75"
        />
      </svg>
    