
      <svg
        xmlns="http://www.w3.org/2000/svg"
        width="30"
        height="30"
        viewBox="0 0 30 30"
      >
        <defs>
          <linearGradient id="gradient" x1="0%" y1="0%" x2="0%" y2="100%">
            <stop offset="0%" stop-color="#83769C" />
            <stop offset="100%" stop-color="#FF77A8" />
          </linearGradient>
        </defs>
        <polyline
          stroke="url(#gradient)"
          stroke-width="1"
          stroke-linecap="round"
          stroke-linejoin="round"
          fill="none"
          points="1.875 1.875 5.625 5.625 5.625 1.875 1.875 5.625 9.375 1.875 13.125 5.625 9.375 5.625 13.125 1.875 9.375 9.375 13.125 13.125 9.375 13.125 13.125 9.375 5.625 13.125 1.875 9.375 1.875 13.125 5.625 9.375 1.875 16.875 5.625 20.625 1.875 20.625 5.625 16.875 1.875 24.375 5.625 28.125 5.625 24.375 1.875 28.125 9.375 24.375 13.125 28.125 13.125 24.375 9.375 28.125 13.125 20.625 9.375 16.875 13.125 16.875 9.375 20.625 16.875 16.875 20.625 20.625 16.875 20.625 20.625 16.875 16.875 24.375 20.625 28.125 20.625 24.375 16.875 28.125 24.375 24.375 28.125 28.125 28.125 24.375 24.375 28.125 28.125 20.625 24.375 16.875 28.125 16.875 24.375 20.625 28.125 13.125 24.375 9.375 24.375 13.125 28.125 9.375 20.625 13.125 16.875 9.375 20.625 9.375 16.875 13.125 20.625 5.625 16.875 1.875 20.625 1.875 16.875 5.625 24.375 1.875 28.125 5.625 28.125 1.875 24.375 5.625"
        />
      </svg>
    