
      <svg
        xmlns="http://www.w3.org/2000/svg"
        width="20"
        height="20"
        viewBox="0 0 20 20"
      >
        <defs>
          <linearGradient id="gradient" x1="0%" y1="0%" x2="0%" y2="100%">
            <stop offset="0%" stop-color="#83769c" />
            <stop offset="100%" stop-color="#ff77a8" />
          </linearGradient>
        </defs>
        <polyline
          stroke="url(#gradient)"
          stroke-width="1"
          stroke-linecap="round"
          stroke-linejoin="round"
          fill="none"
          points="1.25 1.25 3.75 3.75 3.75 1.25 1.25 3.75 6.25 1.25 8.75 3.75 6.25 3.75 8.75 1.25 6.25 6.25 8.75 8.75 6.25 8.75 8.75 6.25 3.75 8.75 1.25 6.25 1.25 8.75 3.75 6.25 1.25 11.25 3.75 13.75 1.25 13.75 3.75 11.25 1.25 16.25 3.75 18.75 3.75 16.25 1.25 18.75 6.25 16.25 8.75 18.75 8.75 16.25 6.25 18.75 8.75 13.75 6.25 11.25 8.75 11.25 6.25 13.75 11.25 11.25 13.75 13.75 11.25 13.75 13.75 11.25 11.25 16.25 13.75 18.75 13.75 16.25 11.25 18.75 16.25 16.25 18.75 18.75 18.75 16.25 16.25 18.75 18.75 13.75 16.25 11.25 18.75 11.25 16.25 13.75 18.75 8.75 16.25 6.25 16.25 8.75 18.75 6.25 13.75 8.75 11.25 6.25 13.75 6.25 11.25 8.75 13.75 3.75 11.25 1.25 13.75 1.25 11.25 3.75 16.25 1.25 18.75 3.75 18.75 1.25 16.25 3.75"
        />
      </svg>
    