<?xml version="1.0" encoding="UTF-8" standalone="no"?>
<!-- Created with Inkscape (http://www.inkscape.org/) -->

<svg
   width="32.0px"
   height="32.0px"
   viewBox="0 0 32.0 32.0"
   version="1.1"
   id="SVGRoot"
   sodipodi:docname="chat-revised-fill.svg"
   inkscape:version="1.1.1 (c3084ef, 2021-09-22)"
   xmlns:inkscape="http://www.inkscape.org/namespaces/inkscape"
   xmlns:sodipodi="http://sodipodi.sourceforge.net/DTD/sodipodi-0.dtd"
   xmlns="http://www.w3.org/2000/svg"
   xmlns:svg="http://www.w3.org/2000/svg">
  <sodipodi:namedview
     id="namedview827"
     pagecolor="#505050"
     bordercolor="#eeeeee"
     borderopacity="1"
     inkscape:pageshadow="0"
     inkscape:pageopacity="0"
     inkscape:pagecheckerboard="0"
     inkscape:document-units="px"
     showgrid="true"
     inkscape:zoom="13.6"
     inkscape:cx="14.963235"
     inkscape:cy="13.051471"
     inkscape:window-width="1312"
     inkscape:window-height="969"
     inkscape:window-x="265"
     inkscape:window-y="46"
     inkscape:window-maximized="0"
     inkscape:current-layer="layer1">
    <inkscape:grid
       type="xygrid"
       id="grid890" />
  </sodipodi:namedview>
  <defs
     id="defs822" />
  <g
     inkscape:label="Layer 1"
     inkscape:groupmode="layer"
     id="layer1">
    <path
       id="path2378"
       style="stroke-width:1.5"
       d="m 12,2.0358786 c -6.627,0 -12,4.701 -12,10.5000004 0,2.64 1.115626,5.053436 2.953126,6.898438 -0.144,1.524 -0.625252,3.195218 -1.15625,4.449218 -0.1185,0.279 0.11016,0.590968 0.410156,0.542968 3.384,-0.554994 5.397436,-1.407562 6.273436,-1.851562 A 13.59,13.59 0 0 0 12,23.035879 c 6.627,0 12,-4.701002 12,-10.5 C 24,6.7368786 18.627,2.0358786 12,2.0358786 Z M 25.277344,8.567129 C 25.741854,9.808549 26,11.140611 26,12.535879 c 0,7.034378 -6.42718,12.5 -14,12.5 -0.317018,2.36e-4 -0.630792,-0.02 -0.945312,-0.04688 2.197472,2.15048 5.389304,3.507818 8.945312,3.507818 a 13.59,13.59 0 0 0 3.519532,-0.460938 c 0.876,0.444 2.889436,1.296568 6.273436,1.851562 0.299998,0.048 0.528658,-0.263968 0.410156,-0.542968 -0.530998,-1.254 -1.012252,-2.92522 -1.156248,-4.449218 C 30.884374,23.050251 32,20.636817 32,17.996817 32,13.855129 29.258192,10.276041 25.277344,8.567129 Z M 6,11.035879 a 1.5,1.5 0 0 1 1.5,1.5 1.5,1.5 0 0 1 -3,0 1.5,1.5 0 0 1 1.5,-1.5 z m 6,0 a 1.5,1.5 0 0 1 0.19532,0.0118 1.5,1.5 0 0 1 0.1914,0.03906 1.5,1.5 0 0 1 0.1875,0.0625 1.5,1.5 0 0 1 0.17578,0.08594 1.5,1.5 0 0 1 0.16406,0.10938 1.5,1.5 0 0 1 0.14844,0.1289 1.5,1.5 0 0 1 0.1289,0.14844 1.5,1.5 0 0 1 0.10938,0.16406 1.5,1.5 0 0 1 0.08594,0.17578 1.5,1.5 0 0 1 0.0625,0.1875 1.5,1.5 0 0 1 0.03906,0.1914 A 1.5,1.5 0 0 1 13.5,12.535879 1.5,1.5 0 0 1 13.386718,13.110097 1.5,1.5 0 0 1 13.0625,13.598379 1.5,1.5 0 0 1 12.574218,13.922597 1.5,1.5 0 0 1 12,14.035879 1.5,1.5 0 0 1 11.425782,13.922597 1.5,1.5 0 0 1 10.9375,13.598379 1.5,1.5 0 0 1 10.613282,13.110097 1.5,1.5 0 0 1 10.5,12.535879 1.5,1.5 0 0 1 10.613282,11.961661 1.5,1.5 0 0 1 10.9375,11.473379 1.5,1.5 0 0 1 11.425782,11.149161 1.5,1.5 0 0 1 12,11.035879 Z m 6,0 a 1.5,1.5 0 0 1 0,3 1.5,1.5 0 0 1 0,-3 z" />
  </g>
</svg>
