<?xml version="1.0" encoding="UTF-8" standalone="no"?>
<!-- Created with Inkscape (http://www.inkscape.org/) -->

<svg
   width="32.0px"
   height="32.0px"
   viewBox="0 0 32.0 32.0"
   version="1.1"
   id="SVGRoot"
   sodipodi:docname="chat-revised.svg"
   inkscape:version="1.1.1 (c3084ef, 2021-09-22)"
   xmlns:inkscape="http://www.inkscape.org/namespaces/inkscape"
   xmlns:sodipodi="http://sodipodi.sourceforge.net/DTD/sodipodi-0.dtd"
   xmlns="http://www.w3.org/2000/svg"
   xmlns:svg="http://www.w3.org/2000/svg">
  <sodipodi:namedview
     id="namedview1323"
     pagecolor="#505050"
     bordercolor="#eeeeee"
     borderopacity="1"
     inkscape:pageshadow="0"
     inkscape:pageopacity="0"
     inkscape:pagecheckerboard="0"
     inkscape:document-units="px"
     showgrid="true"
     inkscape:zoom="13.557934"
     inkscape:cx="15.820994"
     inkscape:cy="16.706085"
     inkscape:window-width="1312"
     inkscape:window-height="969"
     inkscape:window-x="632"
     inkscape:window-y="83"
     inkscape:window-maximized="0"
     inkscape:current-layer="layer1">
    <inkscape:grid
       type="xygrid"
       id="grid1386" />
  </sodipodi:namedview>
  <defs
     id="defs1318" />
  <g
     inkscape:label="Layer 1"
     inkscape:groupmode="layer"
     id="layer1">
    <path
       id="path2"
       style="stroke-width:1.5"
       d="m 12,2.0358871 c -6.627,0 -12,4.7009999 -12,10.4999999 0,2.64 1.112626,5.053436 2.953126,6.898438 a 15.6555,15.6555 0 0 1 -0.785158,3.480468 l -0.0038,0.0156 a 16.083,16.083 0 0 1 -0.367186,0.953124 c -0.1185,0.279 0.11166,0.59097 0.410156,0.542968 a 32.5095,32.5095 0 0 0 1.039062,-0.1875 l 0.03126,-0.004 c 2.745,-0.5445 4.423126,-1.265656 5.203126,-1.660156 A 13.59,13.59 0 0 0 12,23.035887 c 6.627,0 12,-4.701 12,-10.5 0,-5.799 -5.373,-10.4999999 -12,-10.4999999 z m 0,1.5 c 5.994,0 10.5,4.2119999 10.5,8.9999999 0,4.7895 -4.506,9 -10.5,9 a 12.09,12.09 0 0 1 -3.132812,-0.40625 1.5,1.5 0 0 0 -1.066406,0.10938 c -0.5805,0.294002 -1.85822,0.855344 -3.94922,1.339844 A 16.455,16.455 0 0 0 4.449218,19.578855 1.5,1.5 0 0 0 4.015626,18.375731 C 2.425626,16.779731 1.5,14.737887 1.5,12.535887 1.5,7.747887 6.006,3.5358871 12,3.5358871 Z M 25.277344,8.567137 c 0.233084,0.622928 0.417766,1.268114 0.539062,1.933594 C 28.67988,12.145279 30.5,14.954993 30.5,17.996825 c 0,2.202 -0.925628,4.243844 -2.515624,5.839844 a 1.5,1.5 0 0 0 -0.433594,1.199218 16.455,16.455 0 0 0 0.597656,3 c -2.091,-0.4845 -3.36872,-1.045844 -3.94922,-1.339844 A 1.5,1.5 0 0 0 23.132812,26.586669 12.09,12.09 0 0 1 20,26.996825 c -2.55682,0 -4.843926,-0.76914 -6.625,-2.019532 -0.45156,0.0398 -0.909832,0.05848 -1.371094,0.0586 -0.317642,4.28e-4 -0.633844,-0.0196 -0.949218,-0.04688 2.197462,2.150284 5.389484,3.507814 8.945312,3.507814 a 13.59,13.59 0 0 0 3.519532,-0.460938 c 0.78,0.3945 2.458124,1.11175 5.203124,1.65625 l 0.03126,0.0078 a 32.5095,32.5095 0 0 0 1.039062,0.1875 c 0.2985,0.048 0.528658,-0.263968 0.410156,-0.542968 a 16.083,16.083 0 0 1 -0.367186,-0.957032 l -0.004,-0.0156 A 15.6555,15.6555 0 0 1 29.046876,24.895263 C 30.887374,23.050259 32,20.636825 32,17.996825 32,13.855137 29.258192,10.276049 25.277344,8.567137 Z M 18,11.035887 a 1.5,1.5 0 0 0 0,3 1.5,1.5 0 0 0 0,-3 z m -12.214844,0.0156 A 1.5,1.5 0 0 0 4.5,12.535867 a 1.5,1.5 0 0 0 3,0 1.5,1.5 0 0 0 -1.714844,-1.484376 z m 6,0 A 1.5,1.5 0 0 0 10.5,12.535867 a 1.5,1.5 0 0 0 3,0 1.5,1.5 0 0 0 -1.714844,-1.484376 z" />
  </g>
</svg>
