<?xml version="1.0" encoding="UTF-8" standalone="no"?>
<!-- Created with Inkscape (http://www.inkscape.org/) -->

<svg
   width="32.0px"
   height="32.0px"
   viewBox="0 0 32.0 32.0"
   version="1.1"
   id="SVGRoot"
   sodipodi:docname="chat-revised.svg"
   inkscape:version="1.1.1 (c3084ef, 2021-09-22)"
   xmlns:inkscape="http://www.inkscape.org/namespaces/inkscape"
   xmlns:sodipodi="http://sodipodi.sourceforge.net/DTD/sodipodi-0.dtd"
   xmlns="http://www.w3.org/2000/svg"
   xmlns:svg="http://www.w3.org/2000/svg">
  <sodipodi:namedview
     id="namedview1323"
     pagecolor="#ffffff"
     bordercolor="#000000"
     borderopacity="1"
     inkscape:pageshadow="0"
     inkscape:pageopacity="0"
     inkscape:pagecheckerboard="0"
     inkscape:document-units="px"
     showgrid="true"
     inkscape:zoom="17.872311"
     inkscape:cx="16.394075"
     inkscape:cy="14.211929"
     inkscape:window-width="1817"
     inkscape:window-height="974"
     inkscape:window-x="35"
     inkscape:window-y="25"
     inkscape:window-maximized="0"
     inkscape:current-layer="layer1"
     showguides="true">
    <inkscape:grid
       type="xygrid"
       id="grid1386" />
  </sodipodi:namedview>
  <defs
     id="defs1318" />
  <g
     inkscape:label="Layer 1"
     inkscape:groupmode="layer"
     id="layer1">
    <path
       id="path833"
       style="stroke-width:1.5;fill:#000000"
       d="M 12.25 2 C 5.5047783 2 0 6.7965829 0 12.75 C 0 15.406826 1.1213404 17.825209 2.9375 19.697266 C 2.8083379 20.837818 2.5602346 21.963092 2.1816406 23.046875 L 2.1777344 23.056641 L 2.1757812 23.070312 C 2.0659749 23.38419 1.945766 23.693594 1.8164062 24 C 1.6261565 24.44793 2.010063 24.964879 2.4960938 24.886719 L 2.4980469 24.886719 C 2.848064 24.829409 3.1969504 24.767863 3.5449219 24.699219 L 3.5664062 24.695312 L 3.5761719 24.695312 C 6.2930393 24.156381 7.9309547 23.451352 8.7480469 23.042969 C 9.8919373 23.341374 11.0676 23.500881 12.25 23.5 C 18.995222 23.5 24.5 18.703417 24.5 12.75 C 24.5 6.7965828 18.995222 2 12.25 2 z M 12.25 4 C 18.126877 4 22.5 8.1188552 22.5 12.75 C 22.5 17.382694 18.126919 21.5 12.25 21.5 C 11.214325 21.5021 10.182515 21.367794 9.1816406 21.101562 C 8.765432 20.989414 8.3222776 21.036162 7.9375 21.230469 C 7.4301613 21.487417 6.152402 21.975257 4.4296875 22.417969 C 4.6591738 21.563564 4.8557606 20.698785 4.9472656 19.818359 L 4.9472656 19.816406 C 4.9964406 19.297616 4.8116233 18.782773 4.4433594 18.414062 L 4.4414062 18.412109 C 2.8936291 16.857669 2 14.881027 2 12.75 C 2 8.1188551 6.373123 4.0000001 12.25 4 z M 25.673828 8.4609375 C 26.020956 9.3314947 26.264559 10.248001 26.392578 11.201172 C 28.630608 12.840628 30 15.269153 30 17.861328 C 30 19.993266 29.10563 21.970552 27.556641 23.525391 L 27.558594 23.525391 C 27.190384 23.893178 27.004873 24.405605 27.052734 24.923828 L 27.052734 24.925781 L 27.052734 24.927734 C 27.144294 25.808703 27.340602 26.672433 27.570312 27.527344 C 25.847463 27.08444 24.569848 26.594843 24.0625 26.337891 C 23.677722 26.143589 23.234568 26.098787 22.818359 26.210938 C 21.817657 26.478458 20.785844 26.612219 19.75 26.611328 C 17.774319 26.611328 15.967519 26.141179 14.439453 25.345703 C 13.723869 25.445653 12.993524 25.499908 12.251953 25.5 C 11.846413 25.500302 11.445606 25.467255 11.046875 25.421875 C 13.269835 27.392258 16.349354 28.611328 19.75 28.611328 C 20.931104 28.612208 22.105337 28.452053 23.248047 28.154297 C 24.064957 28.562667 25.705035 29.263432 28.423828 29.802734 L 28.449219 29.808594 L 28.455078 29.810547 C 28.803049 29.879197 29.151936 29.942691 29.501953 30 L 29.503906 30 C 29.989211 30.07804 30.37185 29.560747 30.183594 29.113281 C 30.054154 28.805604 29.933955 28.492975 29.824219 28.177734 L 29.822266 28.164062 L 29.818359 28.154297 C 29.43999 27.071614 29.191909 25.949786 29.0625 24.810547 C 30.878657 22.93849 32 20.518154 32 17.861328 C 32 13.804885 29.433774 10.289132 25.673828 8.4609375 z M 6.2480469 11.25 A 1.5 1.5 0 0 0 6.0351562 11.265625 A 1.5 1.5 0 0 0 4.75 12.75 A 1.5 1.5 0 0 0 7.75 12.75 A 1.5 1.5 0 0 0 6.2480469 11.25 z M 12.248047 11.25 A 1.5 1.5 0 0 0 12.035156 11.265625 A 1.5 1.5 0 0 0 10.75 12.75 A 1.5 1.5 0 0 0 13.75 12.75 A 1.5 1.5 0 0 0 12.248047 11.25 z M 18.25 11.25 A 1.5 1.5 0 0 0 18.25 14.25 A 1.5 1.5 0 0 0 18.25 11.25 z " />
  </g>
</svg>
