<?xml version="1.0" encoding="UTF-8" standalone="no"?>
<!-- Created with Inkscape (http://www.inkscape.org/) -->

<svg
   width="32.0px"
   height="32.0px"
   viewBox="0 0 32.0 32.0"
   version="1.1"
   id="SVGRoot"
   sodipodi:docname="chat-revised copy.svg"
   inkscape:version="1.1.1 (c3084ef, 2021-09-22)"
   xmlns:inkscape="http://www.inkscape.org/namespaces/inkscape"
   xmlns:sodipodi="http://sodipodi.sourceforge.net/DTD/sodipodi-0.dtd"
   xmlns="http://www.w3.org/2000/svg"
   xmlns:svg="http://www.w3.org/2000/svg">
  <sodipodi:namedview
     id="namedview1323"
     pagecolor="#ffffff"
     bordercolor="#000000"
     borderopacity="1"
     inkscape:pageshadow="0"
     inkscape:pageopacity="0"
     inkscape:pagecheckerboard="0"
     inkscape:document-units="px"
     showgrid="true"
     inkscape:zoom="17.872311"
     inkscape:cx="13.764308"
     inkscape:cy="14.211928"
     inkscape:window-width="1817"
     inkscape:window-height="974"
     inkscape:window-x="35"
     inkscape:window-y="25"
     inkscape:window-maximized="0"
     inkscape:current-layer="layer1"
     showguides="true">
    <inkscape:grid
       type="xygrid"
       id="grid1386" />
  </sodipodi:namedview>
  <defs
     id="defs1318" />
  <g
     inkscape:label="Layer 1"
     inkscape:groupmode="layer"
     id="layer1">
    <path
       id="path1341"
       style="color:#000000;fill:#000000;stroke-width:4;-inkscape-stroke:none"
       d="M 12.25 2 C 5.5047783 2 0 6.7965829 0 12.75 C 0 15.406826 1.1213404 17.825209 2.9375 19.697266 C 2.8083379 20.837818 2.5602346 21.963092 2.1816406 23.046875 L 2.1777344 23.056641 L 2.1757812 23.070312 C 2.0659762 23.384125 1.9457661 23.693594 1.8164062 24 C 1.6261565 24.44793 2.010063 24.964879 2.4960938 24.886719 L 2.4980469 24.886719 C 2.848064 24.829409 3.1969504 24.767863 3.5449219 24.699219 L 3.5664062 24.695312 L 3.5761719 24.695312 C 6.2930375 24.156369 7.9309547 23.451352 8.7480469 23.042969 C 9.8919373 23.341374 11.0676 23.500881 12.25 23.5 C 18.995222 23.5 24.5 18.703417 24.5 12.75 C 24.5 6.7965828 18.995222 2 12.25 2 z M 25.673828 8.4609375 C 26.205555 9.7944489 26.5 11.235455 26.5 12.75 C 26.5 19.935648 19.944456 25.499045 12.251953 25.5 C 11.846413 25.500302 11.445606 25.467255 11.046875 25.421875 C 13.269835 27.392258 16.349354 28.611328 19.75 28.611328 C 20.931104 28.612208 22.105337 28.452053 23.248047 28.154297 C 24.064957 28.562667 25.705035 29.263432 28.423828 29.802734 L 28.449219 29.808594 L 28.455078 29.810547 C 28.803049 29.879197 29.151936 29.942691 29.501953 30 L 29.503906 30 C 29.989211 30.07804 30.37185 29.560747 30.183594 29.113281 C 30.054154 28.805604 29.933955 28.492975 29.824219 28.177734 L 29.822266 28.164062 L 29.818359 28.154297 C 29.439805 27.071368 29.191909 25.949786 29.0625 24.810547 C 30.878657 22.93849 32 20.518154 32 17.861328 C 32 13.820789 29.452657 10.318565 25.716797 8.484375 C 25.702237 8.470683 25.689068 8.4609345 25.673828 8.4609375 z M 6.2480469 11.25 A 1.5 1.5 0 0 1 7.75 12.75 A 1.5 1.5 0 0 1 4.75 12.75 A 1.5 1.5 0 0 1 6.0351562 11.265625 A 1.5 1.5 0 0 1 6.2480469 11.25 z M 12.248047 11.25 A 1.5 1.5 0 0 1 13.75 12.75 A 1.5 1.5 0 0 1 10.75 12.75 A 1.5 1.5 0 0 1 12.035156 11.265625 A 1.5 1.5 0 0 1 12.248047 11.25 z M 18.25 11.25 A 1.5 1.5 0 0 1 18.25 14.25 A 1.5 1.5 0 0 1 18.25 11.25 z " />
  </g>
</svg>
